<?xml version="1.0" standalone="no"?>
<!DOCTYPE svg PUBLIC "-//W3C//DTD SVG 20010904//EN"
 "http://www.w3.org/TR/2001/REC-SVG-20010904/DTD/svg10.dtd">
<svg version="1.0" xmlns="http://www.w3.org/2000/svg"
 width="512.000000pt" height="512.000000pt" viewBox="0 0 512.000000 512.000000"
 preserveAspectRatio="xMidYMid meet">
<metadata>
Created by potrace 1.14, written by Peter Selinger 2001-2017
</metadata>
<g transform="translate(0.000000,512.000000) scale(0.100000,-0.100000)"
fill="#000000" stroke="none">
<path d="M0 2560 l0 -2560 2560 0 2560 0 0 2560 0 2560 -2560 0 -2560 0 0
-2560z m1606 5 c167 -396 303 -723 303 -728 1 -4 -117 -6 -261 -5 l-263 3 -39
98 -38 97 -251 -2 -251 -3 -38 -95 -37 -95 -261 -3 c-144 -1 -259 1 -257 5 4
7 587 1397 604 1441 4 10 59 12 246 10 l241 -3 302 -720z m1048 491 c110 -180
136 -230 136 -260 0 -22 -5 -39 -14 -42 -8 -3 -55 6 -105 19 -81 22 -91 23
-91 9 0 -26 9 -35 102 -101 55 -39 90 -70 92 -84 3 -12 10 -57 15 -100 6 -43
17 -90 25 -105 l15 -27 17 40 c9 22 19 72 21 110 3 39 11 80 19 92 7 11 51 48
97 82 49 35 87 70 90 83 4 12 5 23 4 24 -1 2 -44 -9 -94 -23 -51 -14 -99 -23
-108 -20 -9 4 -15 19 -15 39 0 25 35 90 138 258 l137 225 253 3 252 2 0 -725
0 -725 -240 0 -240 0 -2 355 -3 354 -165 -254 c-90 -140 -167 -252 -171 -247
-4 4 -80 119 -168 256 l-161 248 0 -356 0 -356 -240 0 -240 0 0 725 0 725 254
0 254 0 136 -224z m1576 -293 l0 -518 337 0 338 0 3 -208 2 -207 -582 2 -583
3 -3 723 -2 722 245 0 245 0 0 -517z"/>
<path d="M992 2543 c-34 -92 -60 -168 -58 -170 2 -2 59 -2 128 -1 l125 3 -61
162 c-34 89 -63 164 -66 167 -3 3 -34 -70 -68 -161z"/>
</g>
</svg>
