<?xml version="1.0" encoding="UTF-8"?>
<!DOCTYPE svg PUBLIC "-//W3C//DTD SVG 1.1//EN" "http://www.w3.org/Graphics/SVG/1.1/DTD/svg11.dtd">
<svg xmlns="http://www.w3.org/2000/svg" version="1.1" viewBox="55, 250, 900, 350" style="shape-rendering:geometricPrecision; text-rendering:geometricPrecision; image-rendering:optimizeQuality; fill-rule:evenodd; clip-rule:evenodd" xmlns:xlink="http://www.w3.org/1999/xlink">
<g><path style="opacity:1" fill="#e4e46a" d="M 379.5,627.5 C 378.312,628.684 377.145,628.684 376,627.5C 375.889,630.944 374.223,633.277 371,634.5C 370.517,635.448 370.351,636.448 370.5,637.5C 345.158,637.833 319.825,637.5 294.5,636.5C 288.833,625.833 283.167,615.167 277.5,604.5C 246.505,603.333 215.505,603.167 184.5,604C 180.264,612.971 175.931,621.804 171.5,630.5C 170.317,630.844 169.484,630.178 169,628.5C 167.667,629.833 166.333,629.833 165,628.5C 164.261,629.574 163.261,630.241 162,630.5C 160.204,630.087 158.537,630.087 157,630.5C 155.846,632.957 154.512,632.957 153,630.5C 150.96,632.353 148.627,633.686 146,634.5C 144.315,632.012 142.981,632.345 142,635.5C 141.586,635.043 141.086,634.709 140.5,634.5C 138.885,635.154 137.218,635.654 135.5,636C 142.492,636.5 149.492,636.666 156.5,636.5C 160.5,636.5 164.5,636.5 168.5,636.5C 138.833,637.833 109.167,637.833 79.5,636.5C 81.924,636.808 84.2573,636.474 86.5,635.5C 85.577,632.755 84.577,630.088 83.5,627.5C 111.701,558.07 140.201,488.736 169,419.5C 174.394,405.987 179.394,392.32 184,378.5C 185.833,377.333 187.667,376.167 189.5,375C 217.167,374.333 244.833,374.333 272.5,375C 273.308,375.308 273.975,375.808 274.5,376.5C 309.788,460.073 344.788,543.74 379.5,627.5 Z M 232.5,443.5 C 236.817,444.32 239.317,446.987 240,451.5C 241.507,464.608 243.507,477.608 246,490.5C 258.044,500.879 270.377,510.879 283,520.5C 284.728,526.769 282.395,530.436 276,531.5C 267.178,529.085 258.344,526.585 249.5,524C 247.5,523.333 245.5,523.333 243.5,524C 240.427,533.952 242.594,542.452 250,549.5C 252.375,553.502 251.541,556.668 247.5,559C 237.788,560.214 228.121,560.214 218.5,559C 214.086,558.252 212.586,555.752 214,551.5C 221.778,543.92 223.611,535.087 219.5,525C 217.167,524.333 214.833,524.333 212.5,525C 203.832,527.167 195.165,529.334 186.5,531.5C 180.435,529.97 178.935,526.303 182,520.5C 189.726,514.053 197.893,508.22 206.5,503C 210.633,499.869 214.466,496.369 218,492.5C 220.493,479.608 222.493,466.608 224,453.5C 225.261,448.745 228.095,445.412 232.5,443.5 Z"/></g>
<g><path style="opacity:1" fill="#e4e46a" d="M 511.5,536.5 C 512.458,536.953 513.292,537.619 514,538.5C 514.333,538.167 514.667,537.833 515,537.5C 515.226,534.905 515.726,532.405 516.5,530C 515.285,527.904 514.451,528.071 514,530.5C 513.439,528.275 512.439,526.275 511,524.5C 509.355,524.693 507.521,524.86 505.5,525C 504.944,525.383 504.611,525.883 504.5,526.5C 500.53,521.011 496.696,515.344 493,509.5C 491.333,508.167 489.667,508.167 488,509.5C 487.5,552.165 487.333,594.832 487.5,637.5C 459.833,637.5 432.167,637.5 404.5,637.5C 404.5,550.167 404.5,462.833 404.5,375.5C 434.507,375.167 464.507,375.5 494.5,376.5C 512.5,405.833 530.5,435.167 548.5,464.5C 551.371,467.113 554.205,467.113 557,464.5C 575.041,434.916 593.208,405.416 611.5,376C 641.165,375.5 670.831,375.333 700.5,375.5C 700.5,462.833 700.5,550.167 700.5,637.5C 672.167,637.5 643.833,637.5 615.5,637.5C 615.83,594.594 615.497,551.761 614.5,509C 611.72,508.731 609.554,509.898 608,512.5C 590.036,541.1 571.369,569.1 552,596.5C 551.228,596.355 550.561,596.022 550,595.5C 536.918,575.933 524.084,556.266 511.5,536.5 Z"/></g>
<g><path style="opacity:1" fill="#e4e46a" d="M 725.5,375.5 C 753.833,375.5 782.167,375.5 810.5,375.5C 810.5,438.167 810.5,500.833 810.5,563.5C 851.833,563.5 893.167,563.5 934.5,563.5C 934.5,588.167 934.5,612.833 934.5,637.5C 864.833,637.5 795.167,637.5 725.5,637.5C 725.5,550.167 725.5,462.833 725.5,375.5 Z"/></g>
<g><path style="opacity:1" fill="#e4e46a" d="M 511.5,536.5 C 508.687,533.554 506.354,530.221 504.5,526.5C 504.611,525.883 504.944,525.383 505.5,525C 507.521,524.86 509.355,524.693 511,524.5C 512.439,526.275 513.439,528.275 514,530.5C 514.451,528.071 515.285,527.904 516.5,530C 515.726,532.405 515.226,534.905 515,537.5C 514.667,537.833 514.333,538.167 514,538.5C 513.292,537.619 512.458,536.953 511.5,536.5 Z"/></g>
<g><path style="opacity:0.997" fill="#e3e369" d="M 83.5,627.5 C 84.577,630.088 85.577,632.755 86.5,635.5C 84.2573,636.474 81.924,636.808 79.5,636.5C 80.5945,633.318 81.9278,630.318 83.5,627.5 Z"/></g>
<g><path style="opacity:0.999" fill="#e3e369" d="M 379.5,627.5 C 381.06,629.954 382.06,632.62 382.5,635.5C 381.167,635.5 380.5,636.167 380.5,637.5C 377.167,637.5 373.833,637.5 370.5,637.5C 370.351,636.448 370.517,635.448 371,634.5C 374.223,633.277 375.889,630.944 376,627.5C 377.145,628.684 378.312,628.684 379.5,627.5 Z"/></g>
<g><path style="opacity:1" fill="#e3e369" d="M 171.5,630.5 C 171.008,632.819 170.008,634.819 168.5,636.5C 168.631,635.624 168.298,634.957 167.5,634.5C 163.792,634.619 160.125,635.286 156.5,636.5C 149.492,636.666 142.492,636.5 135.5,636C 137.218,635.654 138.885,635.154 140.5,634.5C 141.086,634.709 141.586,635.043 142,635.5C 142.981,632.345 144.315,632.012 146,634.5C 148.627,633.686 150.96,632.353 153,630.5C 154.512,632.957 155.846,632.957 157,630.5C 158.537,630.087 160.204,630.087 162,630.5C 163.261,630.241 164.261,629.574 165,628.5C 166.333,629.833 167.667,629.833 169,628.5C 169.484,630.178 170.317,630.844 171.5,630.5 Z"/></g>
<g><path style="opacity:1" fill="#dfdf66" d="M 168.5,636.5 C 164.5,636.5 160.5,636.5 156.5,636.5C 160.125,635.286 163.792,634.619 167.5,634.5C 168.298,634.957 168.631,635.624 168.5,636.5 Z"/></g>
<g><path style="opacity:0.997" fill="#e0e066" d="M 382.5,635.5 C 383.043,635.56 383.376,635.893 383.5,636.5C 382.675,637.386 381.675,637.719 380.5,637.5C 380.5,636.167 381.167,635.5 382.5,635.5 Z"/></g>
</svg>
